<mxfile host="app.diagrams.net" modified="2021-05-01T12:40:11.300Z" agent="5.0 (Windows NT 10.0; Win64; x64) AppleWebKit/537.36 (KHTML, like Gecko) Chrome/90.0.4430.93 Safari/537.36" etag="A4E7mwxDijBIq8_UNWt_" version="14.6.9" type="github">
  <diagram id="TYVINidy_r5RLT-9-Vnp" name="Page-1">
    <mxGraphModel dx="960" dy="588" grid="1" gridSize="10" guides="1" tooltips="1" connect="1" arrows="1" fold="1" page="1" pageScale="1" pageWidth="827" pageHeight="1169" math="0" shadow="0">
      <root>
        <mxCell id="0" />
        <mxCell id="1" parent="0" />
        <mxCell id="irx26XRdqh6CpXdz-TXo-2" value="Talk to Father" style="rounded=0;whiteSpace=wrap;html=1;" vertex="1" parent="1">
          <mxGeometry y="160" width="120" height="60" as="geometry" />
        </mxCell>
        <mxCell id="irx26XRdqh6CpXdz-TXo-3" value="" style="endArrow=classic;html=1;entryX=0.5;entryY=0;entryDx=0;entryDy=0;noEdgeStyle=1;orthogonal=1;exitX=0.5;exitY=1;exitDx=0;exitDy=0;" edge="1" parent="1" source="irx26XRdqh6CpXdz-TXo-1" target="irx26XRdqh6CpXdz-TXo-2">
          <mxGeometry width="50" height="50" relative="1" as="geometry">
            <mxPoint x="60" y="63" as="sourcePoint" />
            <mxPoint x="190" y="140" as="targetPoint" />
            <Array as="points">
              <mxPoint x="60" y="72" />
              <mxPoint x="60" y="148" />
            </Array>
          </mxGeometry>
        </mxCell>
        <mxCell id="irx26XRdqh6CpXdz-TXo-1" value="Start" style="rounded=0;whiteSpace=wrap;html=1;glass=0;shadow=0;sketch=0;fillColor=#7F00FF;" vertex="1" parent="1">
          <mxGeometry width="120" height="60" as="geometry" />
        </mxCell>
        <mxCell id="irx26XRdqh6CpXdz-TXo-5" value="Talk to Farmer" style="rounded=0;whiteSpace=wrap;html=1;" vertex="1" parent="1">
          <mxGeometry y="320" width="120" height="60" as="geometry" />
        </mxCell>
        <mxCell id="irx26XRdqh6CpXdz-TXo-6" value="" style="endArrow=classic;html=1;entryX=0.5;entryY=1;entryDx=0;entryDy=0;noEdgeStyle=1;orthogonal=1;exitX=0.5;exitY=1;exitDx=0;exitDy=0;" edge="1" parent="1" source="irx26XRdqh6CpXdz-TXo-2" target="irx26XRdqh6CpXdz-TXo-5">
          <mxGeometry width="50" height="50" relative="1" as="geometry">
            <mxPoint x="70" y="70" as="sourcePoint" />
            <mxPoint x="70" y="170" as="targetPoint" />
            <Array as="points">
              <mxPoint x="60" y="232" />
              <mxPoint x="60" y="308" />
            </Array>
          </mxGeometry>
        </mxCell>
      </root>
    </mxGraphModel>
  </diagram>
</mxfile>
